<?xml version="1.0" standalone="no"?>
<!DOCTYPE svg PUBLIC "-//W3C//DTD SVG 20010904//EN"
 "http://www.w3.org/TR/2001/REC-SVG-20010904/DTD/svg10.dtd">
<svg version="1.0" xmlns="http://www.w3.org/2000/svg"
 width="260.000000pt" height="260.000000pt" viewBox="0 0 260.000000 260.000000"
 preserveAspectRatio="xMidYMid meet">
<metadata>
Created by potrace 1.14, written by Peter Selinger 2001-2017
</metadata>
<g transform="translate(0.000000,260.000000) scale(0.100000,-0.100000)"
fill="#000000" stroke="none">
<path d="M1068 2520 c-260 -55 -464 -163 -643 -344 -240 -241 -365 -541 -365
-876 0 -443 228 -840 615 -1072 266 -160 609 -209 922 -133 353 87 663 337
818 660 399 835 -202 1789 -1124 1784 -91 0 -165 -6 -223 -19z m-30 -1122 l-3
-433 -29 -62 c-34 -75 -95 -134 -174 -171 -51 -24 -69 -27 -167 -27 -105 0
-114 2 -177 33 -112 55 -176 149 -191 280 l-6 52 139 0 140 0 0 -25 c0 -68 63
-116 126 -95 64 21 64 23 64 475 l0 405 141 0 140 0 -3 -432z m552 191 c0
-132 4 -238 9 -235 4 3 88 111 186 241 l178 235 180 0 179 0 -44 -52 c-24 -29
-128 -155 -231 -279 l-186 -227 221 -268 c121 -148 225 -275 231 -281 7 -10
-27 -13 -166 -13 l-175 0 -189 248 -188 247 -3 -247 -2 -248 -135 0 -135 0 0
560 0 560 135 0 135 0 0 -241z"/>
</g>
</svg>
